<svg xmlns="http://www.w3.org/2000/svg" xmlns:xlink="http://www.w3.org/1999/xlink" width="500" zoomAndPan="magnify" viewBox="0 0 375 374.999991" height="500" preserveAspectRatio="xMidYMid meet" version="1.0"><defs><g/><clipPath id="51b2e243c1"><path d="M 122.574219 59.390625 L 252.324219 59.390625 L 252.324219 180 L 122.574219 180 Z M 122.574219 59.390625 " clip-rule="nonzero"/></clipPath><clipPath id="066f17f5f3"><path d="M 144 102 L 210 102 L 210 204.140625 L 144 204.140625 Z M 144 102 " clip-rule="nonzero"/></clipPath></defs><g clip-path="url(#51b2e243c1)"><path fill="#1d2144" d="M 207.804688 166.855469 C 233.03125 162.308594 252.324219 140.078125 252.324219 113.550781 C 252.324219 83.769531 227.996094 59.398438 198.261719 59.398438 L 122.574219 59.398438 L 144.199219 81.0625 L 198.261719 81.0625 C 216.101562 81.0625 230.699219 95.683594 230.699219 113.554688 C 230.699219 131.425781 216.101562 146.046875 198.261719 146.046875 L 187.449219 146.046875 L 187.449219 179.117188 L 209.074219 166.613281 C 208.65625 166.699219 208.230469 166.78125 207.804688 166.855469 Z M 207.804688 166.855469 " fill-opacity="1" fill-rule="evenodd"/></g><g clip-path="url(#066f17f5f3)"><path fill="#fa5310" d="M 165.824219 167.707031 C 165.824219 153.265625 165.824219 138.824219 165.824219 124.382812 L 198.261719 124.382812 C 204.207031 124.382812 209.074219 119.511719 209.074219 113.554688 C 209.074219 107.597656 204.207031 102.722656 198.261719 102.722656 L 144.199219 102.722656 C 144.199219 124.382812 144.199219 146.046875 144.199219 167.707031 L 144.199219 204.132812 L 165.824219 191.625 Z M 165.824219 167.707031 " fill-opacity="1" fill-rule="evenodd"/></g><g fill="#1d2144" fill-opacity="1"><g transform="translate(65.410916, 256.613995)"><g><path d="M 1.84375 -29.6875 L 15.59375 -29.6875 C 20.125 -29.6875 22.390625 -27.773438 22.390625 -23.953125 L 22.390625 -15.453125 C 22.390625 -11.628906 20.125 -9.71875 15.59375 -9.71875 L 9.9375 -9.71875 L 9.9375 0 L 1.84375 0 Z M 14.296875 -16.515625 L 14.296875 -22.890625 C 14.296875 -23.566406 13.910156 -23.90625 13.140625 -23.90625 L 9.9375 -23.90625 L 9.9375 -15.5 L 13.140625 -15.5 C 13.910156 -15.5 14.296875 -15.835938 14.296875 -16.515625 Z M 14.296875 -16.515625 "/></g></g></g><g fill="#1d2144" fill-opacity="1"><g transform="translate(95.19419, 256.613995)"><g><path d="M 9.9375 -10.546875 L 9.9375 0 L 1.84375 0 L 1.84375 -29.6875 L 15.59375 -29.6875 C 20.125 -29.6875 22.390625 -27.773438 22.390625 -23.953125 L 22.390625 -16.28125 C 22.390625 -13.351562 21.0625 -11.550781 18.40625 -10.875 L 23.859375 0 L 15.171875 0 L 10.453125 -10.546875 Z M 13.140625 -23.90625 L 9.9375 -23.90625 L 9.9375 -16.046875 L 13.140625 -16.046875 C 13.910156 -16.046875 14.296875 -16.382812 14.296875 -17.0625 L 14.296875 -22.890625 C 14.296875 -23.566406 13.910156 -23.90625 13.140625 -23.90625 Z M 13.140625 -23.90625 "/></g></g></g><g fill="#1d2144" fill-opacity="1"><g transform="translate(125.439888, 256.613995)"><g><path d="M 1.84375 -29.6875 L 9.9375 -29.6875 L 9.9375 0 L 1.84375 0 Z M 1.84375 -29.6875 "/></g></g></g><g fill="#1d2144" fill-opacity="1"><g transform="translate(143.708772, 256.613995)"><g><path d="M 13.234375 -6.796875 L 13.234375 -11 C 13.234375 -11.6875 12.847656 -12.03125 12.078125 -12.03125 L 7.625 -12.03125 C 5.34375 -12.03125 3.734375 -12.53125 2.796875 -13.53125 C 1.859375 -14.53125 1.390625 -15.972656 1.390625 -17.859375 L 1.390625 -23.953125 C 1.390625 -27.773438 3.640625 -29.6875 8.140625 -29.6875 L 14.46875 -29.6875 C 18.976562 -29.6875 21.234375 -27.773438 21.234375 -23.953125 L 21.234375 -20.390625 L 13.140625 -20.390625 L 13.140625 -22.890625 C 13.140625 -23.566406 12.753906 -23.90625 11.984375 -23.90625 L 10.640625 -23.90625 C 9.867188 -23.90625 9.484375 -23.566406 9.484375 -22.890625 L 9.484375 -18.5 C 9.484375 -17.820312 9.867188 -17.484375 10.640625 -17.484375 L 14.984375 -17.484375 C 17.265625 -17.484375 18.890625 -17.003906 19.859375 -16.046875 C 20.835938 -15.085938 21.328125 -13.6875 21.328125 -11.84375 L 21.328125 -5.734375 C 21.328125 -1.910156 19.070312 0 14.5625 0 L 8.28125 0 C 3.75 0 1.484375 -1.910156 1.484375 -5.734375 L 1.484375 -9.296875 L 9.578125 -9.296875 L 9.578125 -6.796875 C 9.578125 -6.117188 9.960938 -5.78125 10.734375 -5.78125 L 12.078125 -5.78125 C 12.847656 -5.78125 13.234375 -6.117188 13.234375 -6.796875 Z M 13.234375 -6.796875 "/></g></g></g><g fill="#1d2144" fill-opacity="1"><g transform="translate(172.890885, 256.613995)"><g><path d="M 9.0625 0 L 1.84375 0 L 1.84375 -29.6875 L 10.6875 -29.6875 L 15.5 -13.828125 L 20.296875 -29.6875 L 29.140625 -29.6875 L 29.140625 0 L 21.96875 0 L 21.96875 -18.875 L 18.265625 -6.421875 L 12.71875 -6.421875 L 9.0625 -18.78125 Z M 9.0625 0 "/></g></g></g><g fill="#1d2144" fill-opacity="1"><g transform="translate(210.350408, 256.613995)"><g><path d="M 16.96875 0 L 16.046875 -4.4375 L 8.921875 -4.4375 L 7.953125 0 L 0 0 L 7.625 -29.6875 L 17.484375 -29.6875 L 25.109375 0 Z M 10.171875 -10.171875 L 14.796875 -10.171875 L 12.53125 -20.859375 Z M 10.171875 -10.171875 "/></g></g></g><g fill="#1d2144" fill-opacity="1"><g transform="translate(241.937131, 256.613995)"><g><path d="M 19.75 -29.6875 L 19.75 -23.90625 L 14.015625 -23.90625 L 14.015625 0 L 5.921875 0 L 5.921875 -23.90625 L 0.234375 -23.90625 L 0.234375 -29.6875 Z M 19.75 -29.6875 "/></g></g></g><g fill="#1d2144" fill-opacity="1"><g transform="translate(268.390944, 256.613995)"><g><path d="M 1.84375 -29.6875 L 9.9375 -29.6875 L 9.9375 0 L 1.84375 0 Z M 1.84375 -29.6875 "/></g></g></g><g fill="#1d2144" fill-opacity="1"><g transform="translate(286.659819, 256.613995)"><g><path d="M 21.734375 -18.59375 L 13.640625 -18.59375 L 13.640625 -23.359375 C 13.640625 -24.035156 13.253906 -24.375 12.484375 -24.375 L 10.875 -24.375 C 10.101562 -24.375 9.71875 -24.035156 9.71875 -23.359375 L 9.71875 -6.34375 C 9.71875 -5.65625 10.101562 -5.3125 10.875 -5.3125 L 12.484375 -5.3125 C 13.253906 -5.3125 13.640625 -5.65625 13.640625 -6.34375 L 13.640625 -10.921875 L 21.734375 -10.921875 L 21.734375 -5.734375 C 21.734375 -1.910156 19.46875 0 14.9375 0 L 8.421875 0 C 3.890625 0 1.625 -1.910156 1.625 -5.734375 L 1.625 -23.953125 C 1.625 -27.773438 3.890625 -29.6875 8.421875 -29.6875 L 14.9375 -29.6875 C 19.46875 -29.6875 21.734375 -27.773438 21.734375 -23.953125 Z M 21.734375 -18.59375 "/></g></g></g><g fill="#fa5310" fill-opacity="1"><g transform="translate(149.531369, 301.023861)"><g><path d="M 11.34375 -19.0625 C 13.101562 -19.0625 14.4375 -18.695312 15.34375 -17.96875 C 16.257812 -17.238281 16.71875 -16.242188 16.71875 -14.984375 C 16.71875 -13.585938 16.289062 -12.332031 15.4375 -11.21875 C 14.582031 -10.101562 13.378906 -9.226562 11.828125 -8.59375 C 10.285156 -7.96875 8.523438 -7.65625 6.546875 -7.65625 L 5.734375 -7.65625 L 4.46875 -2.859375 C 4.4375 -2.734375 4.382812 -2.519531 4.3125 -2.21875 C 4.238281 -1.925781 4.203125 -1.691406 4.203125 -1.515625 C 4.203125 -1.171875 4.335938 -0.925781 4.609375 -0.78125 C 4.878906 -0.632812 5.363281 -0.554688 6.0625 -0.546875 L 5.953125 0 C 5.128906 -0.0507812 4.015625 -0.078125 2.609375 -0.078125 C 1.035156 -0.078125 -0.128906 -0.0507812 -0.890625 0 L -0.78125 -0.546875 C -0.132812 -0.578125 0.347656 -0.644531 0.671875 -0.75 C 0.992188 -0.863281 1.25 -1.070312 1.4375 -1.375 C 1.625 -1.675781 1.8125 -2.171875 2 -2.859375 L 5.546875 -16.21875 C 5.710938 -16.875 5.796875 -17.304688 5.796875 -17.515625 C 5.796875 -17.878906 5.660156 -18.132812 5.390625 -18.28125 C 5.117188 -18.4375 4.644531 -18.523438 3.96875 -18.546875 L 4.09375 -19.078125 C 4.8125 -19.023438 5.914062 -19 7.40625 -19 C 8.269531 -19 8.921875 -19.007812 9.359375 -19.03125 Z M 6.8125 -8.1875 C 9.332031 -8.1875 11.15625 -8.84375 12.28125 -10.15625 C 13.414062 -11.46875 13.984375 -13.222656 13.984375 -15.421875 C 13.984375 -16.472656 13.710938 -17.253906 13.171875 -17.765625 C 12.640625 -18.285156 11.769531 -18.546875 10.5625 -18.546875 C 10.019531 -18.546875 9.597656 -18.476562 9.296875 -18.34375 C 8.992188 -18.207031 8.75 -17.976562 8.5625 -17.65625 C 8.375 -17.332031 8.195312 -16.851562 8.03125 -16.21875 L 5.90625 -8.1875 Z M 6.8125 -8.1875 "/></g></g></g><g fill="#fa5310" fill-opacity="1"><g transform="translate(166.749388, 301.023861)"><g><path d="M 0.5625 -3.859375 C 0.5625 -5.273438 0.875 -6.796875 1.5 -8.421875 C 2.132812 -10.046875 3.046875 -11.421875 4.234375 -12.546875 C 5.421875 -13.671875 6.796875 -14.234375 8.359375 -14.234375 C 9.503906 -14.234375 10.40625 -13.878906 11.0625 -13.171875 C 11.71875 -12.460938 12.046875 -11.40625 12.046875 -10 C 12.046875 -8.582031 11.726562 -7.054688 11.09375 -5.421875 C 10.46875 -3.796875 9.5625 -2.421875 8.375 -1.296875 C 7.195312 -0.179688 5.828125 0.375 4.265625 0.375 C 3.109375 0.375 2.203125 0.0195312 1.546875 -0.6875 C 0.890625 -1.394531 0.5625 -2.453125 0.5625 -3.859375 Z M 8.1875 -13.6875 C 7.269531 -13.6875 6.398438 -13.101562 5.578125 -11.9375 C 4.765625 -10.769531 4.113281 -9.3125 3.625 -7.5625 C 3.132812 -5.8125 2.890625 -4.125 2.890625 -2.5 C 2.890625 -1.695312 3.015625 -1.101562 3.265625 -0.71875 C 3.515625 -0.34375 3.898438 -0.15625 4.421875 -0.15625 C 5.335938 -0.15625 6.203125 -0.738281 7.015625 -1.90625 C 7.835938 -3.082031 8.492188 -4.546875 8.984375 -6.296875 C 9.484375 -8.046875 9.734375 -9.726562 9.734375 -11.34375 C 9.734375 -12.15625 9.601562 -12.75 9.34375 -13.125 C 9.09375 -13.5 8.707031 -13.6875 8.1875 -13.6875 Z M 8.1875 -13.6875 "/></g></g></g><g fill="#fa5310" fill-opacity="1"><g transform="translate(181.246063, 301.023861)"><g><path d="M 16.6875 -11.046875 C 16.832031 -10.453125 16.90625 -9.695312 16.90625 -8.78125 C 16.90625 -7.332031 16.664062 -5.90625 16.1875 -4.5 C 15.707031 -3.101562 14.96875 -1.941406 13.96875 -1.015625 C 12.976562 -0.0859375 11.742188 0.375 10.265625 0.375 C 8.847656 0.375 7.894531 -0.171875 7.40625 -1.265625 C 6.1875 -0.171875 4.945312 0.375 3.6875 0.375 C 2.539062 0.375 1.695312 0.0820312 1.15625 -0.5 C 0.613281 -1.082031 0.34375 -1.816406 0.34375 -2.703125 C 0.34375 -4.222656 1.097656 -5.875 2.609375 -7.65625 C 4.117188 -9.445312 5.945312 -11.144531 8.09375 -12.75 C 8.03125 -12.726562 7.820312 -12.601562 7.46875 -12.375 C 6.96875 -12.0625 6.570312 -11.835938 6.28125 -11.703125 C 5.988281 -11.578125 5.71875 -11.515625 5.46875 -11.515625 C 5.25 -11.515625 5.054688 -11.566406 4.890625 -11.671875 C 4.722656 -11.773438 4.617188 -11.835938 4.578125 -11.859375 C 4.253906 -12.078125 3.988281 -12.1875 3.78125 -12.1875 C 3.488281 -12.1875 3.242188 -12.0625 3.046875 -11.8125 C 2.847656 -11.570312 2.648438 -11.140625 2.453125 -10.515625 L 2.125 -9.515625 L 1.625 -9.515625 L 2.234375 -11.484375 C 2.554688 -12.484375 2.925781 -13.191406 3.34375 -13.609375 C 3.769531 -14.023438 4.238281 -14.234375 4.75 -14.234375 C 4.976562 -14.234375 5.171875 -14.191406 5.328125 -14.109375 C 5.492188 -14.023438 5.703125 -13.894531 5.953125 -13.71875 C 6.222656 -13.539062 6.441406 -13.40625 6.609375 -13.3125 C 6.785156 -13.226562 6.988281 -13.1875 7.21875 -13.1875 C 7.65625 -13.1875 8.039062 -13.25 8.375 -13.375 C 8.71875 -13.507812 9.050781 -13.722656 9.375 -14.015625 L 9.75 -14.53125 L 10.328125 -14.265625 C 8.128906 -12.410156 6.351562 -10.539062 5 -8.65625 C 3.65625 -6.769531 2.984375 -4.835938 2.984375 -2.859375 C 2.984375 -1.992188 3.109375 -1.375 3.359375 -1 C 3.617188 -0.625 3.988281 -0.4375 4.46875 -0.4375 C 4.914062 -0.4375 5.378906 -0.539062 5.859375 -0.75 C 6.335938 -0.96875 6.800781 -1.289062 7.25 -1.71875 C 7.125 -2.226562 7.0625 -2.757812 7.0625 -3.3125 C 7.0625 -4.320312 7.28125 -5.320312 7.71875 -6.3125 C 8.15625 -7.300781 8.6875 -8.109375 9.3125 -8.734375 C 9.9375 -9.359375 10.5 -9.671875 11 -9.671875 C 11.351562 -9.671875 11.597656 -9.484375 11.734375 -9.109375 C 11.867188 -8.734375 11.9375 -8.296875 11.9375 -7.796875 C 11.9375 -6.816406 11.675781 -5.832031 11.15625 -4.84375 C 10.632812 -3.863281 9.863281 -2.976562 8.84375 -2.1875 C 9.25 -1 9.96875 -0.40625 11 -0.40625 C 12.144531 -0.40625 13.117188 -0.84375 13.921875 -1.71875 C 14.722656 -2.601562 15.320312 -3.691406 15.71875 -4.984375 C 16.113281 -6.273438 16.3125 -7.535156 16.3125 -8.765625 C 16.3125 -9.492188 16.25 -10.082031 16.125 -10.53125 C 15.46875 -10.664062 14.875 -10.929688 14.34375 -11.328125 C 13.820312 -11.734375 13.5625 -12.269531 13.5625 -12.9375 C 13.5625 -13.363281 13.671875 -13.6875 13.890625 -13.90625 C 14.117188 -14.125 14.382812 -14.234375 14.6875 -14.234375 C 15.1875 -14.234375 15.597656 -13.941406 15.921875 -13.359375 C 16.253906 -12.785156 16.507812 -12.015625 16.6875 -11.046875 Z M 10.8125 -9.078125 C 10.5 -9.078125 10.160156 -8.84375 9.796875 -8.375 C 9.441406 -7.914062 9.140625 -7.320312 8.890625 -6.59375 C 8.640625 -5.863281 8.515625 -5.128906 8.515625 -4.390625 C 8.515625 -3.742188 8.578125 -3.171875 8.703125 -2.671875 C 9.515625 -3.335938 10.15625 -4.128906 10.625 -5.046875 C 11.09375 -5.972656 11.328125 -6.894531 11.328125 -7.8125 C 11.328125 -8.65625 11.15625 -9.078125 10.8125 -9.078125 Z M 10.8125 -9.078125 "/></g></g></g><g fill="#fa5310" fill-opacity="1"><g transform="translate(201.050709, 301.023861)"><g><path d="M 11.21875 -12.453125 C 11.21875 -10.992188 10.398438 -9.71875 8.765625 -8.625 C 7.128906 -7.53125 5.257812 -6.640625 3.15625 -5.953125 C 2.957031 -5.054688 2.859375 -4.1875 2.859375 -3.34375 C 2.859375 -1.613281 3.476562 -0.75 4.71875 -0.75 C 6.257812 -0.75 7.644531 -1.648438 8.875 -3.453125 L 9.296875 -3.234375 C 8.722656 -2.242188 7.945312 -1.394531 6.96875 -0.6875 C 5.988281 0.0195312 4.957031 0.375 3.875 0.375 C 2.757812 0.375 1.890625 0.0507812 1.265625 -0.59375 C 0.640625 -1.238281 0.328125 -2.179688 0.328125 -3.421875 C 0.328125 -4.785156 0.722656 -6.328125 1.515625 -8.046875 C 2.316406 -9.765625 3.398438 -11.222656 4.765625 -12.421875 C 6.128906 -13.628906 7.613281 -14.234375 9.21875 -14.234375 C 9.789062 -14.234375 10.265625 -14.078125 10.640625 -13.765625 C 11.023438 -13.460938 11.21875 -13.023438 11.21875 -12.453125 Z M 8.625 -13.71875 C 8.050781 -13.71875 7.410156 -13.378906 6.703125 -12.703125 C 5.992188 -12.035156 5.328125 -11.144531 4.703125 -10.03125 C 4.085938 -8.914062 3.613281 -7.726562 3.28125 -6.46875 C 4.988281 -7.0625 6.210938 -7.632812 6.953125 -8.1875 C 7.617188 -8.707031 8.132812 -9.34375 8.5 -10.09375 C 8.875 -10.84375 9.0625 -11.644531 9.0625 -12.5 C 9.0625 -12.988281 9.023438 -13.3125 8.953125 -13.46875 C 8.878906 -13.632812 8.769531 -13.71875 8.625 -13.71875 Z M 8.625 -13.71875 "/></g></g></g><g fill="#fa5310" fill-opacity="1"><g transform="translate(213.957685, 301.023861)"><g><path d="M 10.640625 -14.234375 C 11.128906 -14.234375 11.515625 -14.085938 11.796875 -13.796875 C 12.085938 -13.515625 12.234375 -13.144531 12.234375 -12.6875 C 12.234375 -12.15625 12.046875 -11.695312 11.671875 -11.3125 C 11.296875 -10.9375 10.851562 -10.75 10.34375 -10.75 C 10.019531 -10.75 9.757812 -10.832031 9.5625 -11 C 9.363281 -11.175781 9.265625 -11.414062 9.265625 -11.71875 C 9.265625 -12.132812 9.375 -12.484375 9.59375 -12.765625 C 9.8125 -13.054688 10.109375 -13.285156 10.484375 -13.453125 C 10.410156 -13.523438 10.3125 -13.5625 10.1875 -13.5625 C 9.21875 -13.5625 8.160156 -12.515625 7.015625 -10.421875 C 5.878906 -8.328125 4.804688 -5.5625 3.796875 -2.125 L 3.265625 0 L 0.921875 0 L 4.15625 -11.5625 C 4.28125 -11.957031 4.34375 -12.304688 4.34375 -12.609375 C 4.34375 -13.023438 4.15625 -13.234375 3.78125 -13.234375 C 3.382812 -13.234375 3.019531 -13.019531 2.6875 -12.59375 C 2.351562 -12.175781 2.015625 -11.472656 1.671875 -10.484375 L 1.328125 -9.484375 L 0.8125 -9.484375 L 1.484375 -11.453125 C 2.128906 -13.304688 3.21875 -14.234375 4.75 -14.234375 C 5.769531 -14.234375 6.28125 -13.710938 6.28125 -12.671875 C 6.28125 -12.160156 6.15625 -11.421875 5.90625 -10.453125 L 5.046875 -7.0625 C 6.015625 -9.664062 6.925781 -11.507812 7.78125 -12.59375 C 8.632812 -13.6875 9.585938 -14.234375 10.640625 -14.234375 Z M 10.640625 -14.234375 "/></g></g></g></svg>